<?xml version="1.0" encoding="utf-8"?>
<!-- Generator: Adobe Illustrator 16.0.0, SVG Export Plug-In . SVG Version: 6.00 Build 0)  -->
<!DOCTYPE svg PUBLIC "-//W3C//DTD SVG 1.1//EN" "http://www.w3.org/Graphics/SVG/1.1/DTD/svg11.dtd">
<svg version="1.1" id="Layer_1" xmlns="http://www.w3.org/2000/svg" xmlns:xlink="http://www.w3.org/1999/xlink" x="0px" y="0px"
	 width="43.417px" height="37.5px" viewBox="0 0 43.417 37.5" enable-background="new 0 0 43.417 37.5" xml:space="preserve">
<path fill="#FFFFFF" d="M33.025,6.929H9.697c-3.391,0-6.15,2.759-6.15,6.15v12.347c0,3.393,2.759,6.15,6.15,6.15h23.329
	c3.392,0,6.149-2.76,6.149-6.15V13.08C39.175,9.688,36.417,6.929,33.025,6.929z M38.296,25.426c0,2.906-2.364,5.271-5.271,5.271
	H9.697c-2.906,0-5.271-2.364-5.271-5.271V13.08c0-2.906,2.365-5.271,5.271-5.271h23.329c2.906,0,5.271,2.365,5.271,5.271V25.426z"/>
<path fill="#FFFFFF" d="M36.27,9.583c-0.172-0.172-0.449-0.172-0.622,0l-9.993,9.992c-1.149,1.149-2.659,1.802-4.251,1.835
	c-1.565,0.033-3.06-0.551-4.156-1.646L7.075,9.59c-0.171-0.172-0.45-0.172-0.622,0c-0.172,0.172-0.172,0.45,0,0.622l10.171,10.172
	c1.233,1.232,2.879,1.907,4.65,1.907c0.049,0,0.098-0.001,0.146-0.002c1.819-0.038,3.544-0.781,4.854-2.094l9.994-9.992
	C36.441,10.033,36.441,9.754,36.27,9.583z"/>
<path fill="#FFFFFF" d="M14.647,20.641l-8.742,6.651c-0.194,0.147-0.231,0.424-0.084,0.617c0.087,0.112,0.218,0.173,0.351,0.173
	c0.093,0,0.187-0.029,0.266-0.09l8.743-6.653c0.193-0.146,0.231-0.423,0.084-0.616C15.116,20.531,14.84,20.493,14.647,20.641z"/>
<path fill="#FFFFFF" d="M27.458,20.723c-0.146,0.193-0.108,0.471,0.084,0.616l8.742,6.653c0.08,0.061,0.174,0.09,0.266,0.09
	c0.134,0,0.265-0.061,0.352-0.173c0.146-0.193,0.11-0.47-0.083-0.617l-8.743-6.651C27.882,20.493,27.606,20.531,27.458,20.723z"/>
</svg>
