<?xml version="1.0" encoding="utf-8"?>
<!-- Generator: Adobe Illustrator 16.0.0, SVG Export Plug-In . SVG Version: 6.00 Build 0)  -->
<!DOCTYPE svg PUBLIC "-//W3C//DTD SVG 1.1//EN" "http://www.w3.org/Graphics/SVG/1.1/DTD/svg11.dtd">
<svg version="1.1" id="Layer_1" xmlns="http://www.w3.org/2000/svg" xmlns:xlink="http://www.w3.org/1999/xlink" x="0px" y="0px"
	 width="48.5px" height="37.5px" viewBox="0 0 48.5 37.5" enable-background="new 0 0 48.5 37.5" xml:space="preserve">
<g>
	<g>
		<path fill="#FFFFFF" d="M24.483,9.333l-0.104,0.001c-3.456,0.003-7.798,0.509-8.773,0.644l-0.294,0.038
			c-1.204,0.146-2.568,0.313-2.568,2.614c0,0.686-0.17,1.358-0.481,1.892c-0.446,0.765-1.179,1.401-2.12,1.842
			c-0.427,0.197-0.811,0.345-1.176,0.45c-0.316,0.09-0.65,0.16-1.023,0.215L7.799,17.05c-1.065,0.164-2.238,0.112-3.215-0.234
			c-1.656-0.369-3.094-2.477-3.094-4.591c0-2.46,2.18-3.861,2.428-4.013c6.884-3.734,16.449-4.204,20.242-4.233l0.552-0.002
			C28.58,4.008,38.15,4.483,45.009,8.203c0.269,0.162,2.445,1.563,2.445,4.022c0,2.114-1.438,4.222-3.14,4.604
			c-0.606,0.218-1.313,0.335-2.051,0.335c-0.641,0-1.264-0.091-1.852-0.27l-0.029-0.002c-1.445-0.246-4.184-1.453-4.184-4.263
			c0-2.301-1.365-2.467-2.568-2.614l-0.294-0.038c-0.974-0.135-5.313-0.64-8.773-0.646 M24.64,4.798L24.177,4.8
			C20.435,4.829,11.031,5.288,4.328,8.924c-0.065,0.041-2.017,1.254-2.017,3.301c0,1.697,1.191,3.51,2.5,3.804
			c0.902,0.316,1.856,0.366,2.864,0.21l0.148-0.023c0.338-0.05,0.639-0.112,0.918-0.193c0.322-0.092,0.667-0.224,1.053-0.404
			c0.79-0.369,1.398-0.892,1.758-1.51c0.239-0.41,0.371-0.935,0.371-1.479c0-3.028,2.059-3.279,3.289-3.429l0.282-0.036
			c0.985-0.137,5.382-0.648,8.885-0.652l0.188-0.001c3.506,0.006,7.9,0.517,8.884,0.653L33.732,9.2
			c1.229,0.15,3.289,0.401,3.289,3.429c0,2.825,3.467,3.448,3.502,3.453l0.086,0.013c1.103,0.345,2.418,0.321,3.479-0.054
			c1.355-0.307,2.547-2.119,2.547-3.816c0-2.046-1.951-3.26-2.035-3.312c-6.676-3.62-16.086-4.084-19.822-4.115"/>
	</g>
	<g>
		<path fill="#FFFFFF" d="M32.686,34.453H16.261c-2.271,0-4.12-1.85-4.12-4.12v-5.397c0-0.346,0.047-0.701,0.141-1.055
			c0.048-0.174,0.082-0.273,0.117-0.37l3.037-9.209c0.561-1.744,2.137-2.894,3.934-2.894h10.208c1.797,0,3.372,1.15,3.922,2.862
			l3.16,9.589c0.098,0.381,0.146,0.733,0.146,1.076v5.396C36.807,32.604,34.957,34.453,32.686,34.453z M19.37,12.229
			c-1.439,0-2.701,0.921-3.141,2.292l-3.054,9.26c-0.034,0.092-0.06,0.17-0.083,0.252c-0.09,0.342-0.128,0.627-0.128,0.902v5.396
			c0,1.818,1.48,3.299,3.299,3.299h16.424c1.818,0,3.299-1.479,3.299-3.299v-5.396c0-0.275-0.037-0.554-0.113-0.849l-0.1-0.312
			l-3.039-9.218c-0.455-1.408-1.717-2.33-3.154-2.33H19.37V12.229z"/>
	</g>
	<g>
		<path fill="#FFFFFF" d="M24.473,24.65c-2.655,0-4.815-2.16-4.815-4.816c0-2.655,2.16-4.815,4.815-4.815
			c2.656,0,4.816,2.16,4.816,4.815C29.289,22.49,27.129,24.65,24.473,24.65z M24.473,15.84c-2.203,0-3.995,1.792-3.995,3.994
			c0,2.203,1.792,3.994,3.995,3.994c2.203,0,3.994-1.791,3.994-3.994S26.676,15.84,24.473,15.84z"/>
	</g>
</g>
</svg>
